# xmcd
#
# Track frame offsets:
#	150
#	17640
#	32520
#	46622
#	62907
#	74972
#	92372
#	111690
#	124897
#	137927
#	152385
#	167330
#	190262
#
# Disc length: 2784 seconds
#
# Revision: 1
# Processed by: cddbd v1.5.1PL0 Copyright (c) Steve Scherf et al.
# Submitted via: CDex 1.50Beta5
#
DISCID=af0ade0d
DTITLE=ヌードルス - スローコースター
DYEAR=1997
DGENRE=Rock
TTITLE0=Slow Coaster
TTITLE1=Little Swing
TTITLE2=Hellow Beautiful
TTITLE3=骸骨に星は降る
TTITLE4=悲しい部屋
TTITLE5=Stay here don’t go away
TTITLE6=Mirror,Girl and Sun
TTITLE7=End of Sweet
TTITLE8=愛を放つイメージ
TTITLE9=ナイアガラ
TTITLE10=God Knows
TTITLE11=Super Natural
TTITLE12=See You
EXTD=
EXTT0=
EXTT1=
EXTT2=
EXTT3=
EXTT4=
EXTT5=
EXTT6=
EXTT7=
EXTT8=
EXTT9=
EXTT10=
EXTT11=
EXTT12=
PLAYORDER=
